<?xml version="1.0" standalone="no"?>
<!DOCTYPE svg PUBLIC "-//W3C//DTD SVG 20010904//EN"
 "http://www.w3.org/TR/2001/REC-SVG-20010904/DTD/svg10.dtd">
<svg version="1.0" xmlns="http://www.w3.org/2000/svg"
 width="700.000000pt" height="700.000000pt" viewBox="0 0 700.000000 700.000000"
 preserveAspectRatio="xMidYMid meet">
<metadata>
Created by potrace 1.14, written by Peter Selinger 2001-2017
</metadata>
<g transform="translate(0.000000,700.000000) scale(0.100000,-0.100000)"
fill="#000000" stroke="none">
<path d="M1357 5114 c-1 -1 -38 -4 -82 -7 -155 -11 -337 -63 -487 -138 -455
-228 -741 -683 -752 -1194 -2 -82 18 -287 29 -305 2 -4 7 -21 10 -39 17 -100
102 -296 177 -413 56 -88 154 -203 228 -268 34 -30 67 -60 74 -65 30 -28 180
-120 251 -154 192 -93 383 -136 595 -134 572 3 1065 347 1270 888 15 39 31 69
36 69 5 -1 43 -5 84 -8 41 -3 95 -8 120 -11 25 -3 68 -7 95 -10 28 -2 73 -7
100 -10 109 -11 253 -25 305 -30 48 -4 144 -14 295 -30 22 -2 69 -7 105 -10
36 -3 74 -8 85 -10 11 -2 27 -4 36 -4 12 -1 18 -15 22 -53 33 -284 180 -597
387 -821 221 -239 565 -425 855 -462 28 -4 70 -11 95 -15 66 -12 324 -4 418
14 297 55 564 188 780 390 88 82 225 257 275 351 102 191 159 360 184 543 10
73 10 341 0 407 -35 241 -112 440 -245 640 -314 471 -873 728 -1432 657 -109
-13 -309 -62 -370 -89 -71 -32 -196 -93 -215 -105 -229 -147 -379 -290 -501
-479 -46 -70 -137 -248 -149 -289 -3 -14 -14 -44 -22 -68 l-16 -43 -81 6 c-45
3 -99 8 -121 10 -22 3 -83 7 -135 10 -52 4 -111 8 -130 10 -19 2 -84 6 -145
10 -60 3 -128 8 -150 10 -22 3 -74 7 -115 10 -41 2 -102 7 -135 9 -33 3 -98 8
-145 11 -82 6 -94 9 -95 23 -5 67 -49 247 -75 307 -5 11 -21 49 -36 85 -183
428 -627 751 -1094 795 -61 6 -180 12 -183 9z"/>
</g>
</svg>
